# xmcd
#
# Track frame offsets: 
#        150
#        26100
#        41100
#        64050
#        84450
#        124800
#        146550
#        173700
#        247050
#
# Disc length: 4096 seconds
#
# Revision: 0
# Processed by: cddbd v1.5.2PL0 Copyright (c) Steve Scherf et al.
# Submitted via: ExactAudioCopyFreeDBPlugin 1.0
#
DISCID=7f0ffe09
DTITLE=査阜西 - 國藝之光 査阜西
DYEAR=2015
DGENRE=Chinese Classical
TTITLE0=長門怨 
TTITLE1=洞庭思秋
TTITLE2=醉漁唱晚（粗紋唱片版）
TTITLE3=醉漁唱晚（中密紋唱片版）
TTITLE4=空山憶故人
TTITLE5=査阜西；管平湖 - 平沙落雁
TTITLE6=査阜西；蔣風之 - 鷗鷺忘機
TTITLE7=漁歌
TTITLE8=瀟湘水雲
EXTD=
EXTT0=
EXTT1=
EXTT2=
EXTT3=
EXTT4=
EXTT5=
EXTT6=
EXTT7=
EXTT8=
PLAYORDER=
